<svg width="64" height="64" viewBox="0 0 64 64" fill="none" xmlns="http://www.w3.org/2000/svg">
  <!-- Background -->
  <rect width="64" height="64" rx="8" fill="#ffffff"/>
  
  <!-- DataSoph Golden Spiral Logo -->
  <g transform="translate(32,32) scale(1.2)">
    <!-- Outermost spiral -->
    <path
      d="M0 -15 C8.3 -15, 15 -8.3, 15 0 C15 8.3, 8.3 15, 0 15 C-8.3 15, -15 8.3, -15 0 C-15 -5.5, -11 -10, -5 -10 C1 -10, 5 -6, 5 0 C5 2.8, 2.8 5, 0 5 C-1.4 5, -2.5 3.9, -2.5 2.5 C-2.5 1.8, -2 1.3, -1.3 1.3 C-0.9 1.3, -0.5 1.6, -0.5 2 C-0.5 2.2, -0.66 2.34, -0.84 2.34"
      stroke="#FFD700"
      strokeWidth="3"
      strokeLinecap="round"
      fill="none"
    />
    
    <!-- Middle spiral layer -->
    <path
      d="M0 -12.5 C6.9 -12.5, 12.5 -6.9, 12.5 0 C12.5 6.9, 6.9 12.5, 0 12.5 C-6.9 12.5, -12.5 6.9, -12.5 0 C-12.5 -4.4, -8.1 -8.1, -3.8 -8.1 C0.6 -8.1, 4.4 -4.4, 4.4 0 C4.4 2.4, 2.4 4.4, 0 4.4 C-1.1 4.4, -2 3.5, -2 2.4"
      stroke="#FFD700"
      strokeWidth="2"
      strokeLinecap="round"
      fill="none"
      opacity="0.8"
    />
    
    <!-- Inner spiral -->
    <path
      d="M0 -10 C5.5 -10, 10 -5.5, 10 0 C10 5.5, 5.5 10, 0 10 C-5.5 10, -10 5.5, -10 0 C-10 -3.4, -6.6 -6.3, -3.1 -6.3 C0.4 -6.3, 3.1 -3.4, 3.1 0 C3.1 1.7, 1.7 3.1, 0 3.1"
      stroke="#FFD700"
      strokeWidth="1.5"
      strokeLinecap="round"
      fill="none"
      opacity="0.6"
    />
  </g>
</svg> 